<?xml version="1.0" encoding="utf-8"?>
<svg xmlns="http://www.w3.org/2000/svg" viewBox="0 0 720 500" font-family="'Helvetica Neue', Helvetica, Arial, sans-serif" font-size="13">
  <defs>
    <marker id="arrow" markerWidth="8" markerHeight="6" refX="8" refY="3" orient="auto">
      <path d="M0,0 L8,3 L0,6 Z" fill="#333"/>
    </marker>
  </defs>
  <rect width="720" height="500" fill="#fafafa" rx="8"/>
  <text x="360" y="30" text-anchor="middle" font-size="18" font-weight="bold" fill="#222" style="white-space: pre;">Comparator-Based Relaxation Oscillator</text>
  <line x1="140" y1="65" x2="400" y2="65" style="stroke: rgb(0, 0, 0); stroke-width: 2px;"/>
  <text x="270" y="58" text-anchor="middle" font-size="11" fill="#c00" style="white-space: pre;">V+ (5V)</text>
  <line x1="80" y1="65" x2="140" y2="65" style="stroke: rgb(0, 0, 0); stroke-width: 2px;"/>
  <line x1="80" y1="65" x2="80" y2="80" stroke="#333" stroke-width="1.5"/>
  <line x1="68" y1="80" x2="92" y2="80" stroke="#333" stroke-width="2.5"/>
  <line x1="73" y1="87" x2="87" y2="87" stroke="#333" stroke-width="1.5"/>
  <line x1="80" y1="87" x2="80" y2="95" stroke="#333" stroke-width="1.5"/>
  <line x1="66" y1="95" x2="94" y2="95" stroke="#333" stroke-width="2"/>
  <line x1="70" y1="100" x2="90" y2="100" stroke="#333" stroke-width="1.5"/>
  <line x1="74" y1="105" x2="86" y2="105" stroke="#333" stroke-width="1"/>
  <text x="80" y="120" text-anchor="middle" font-size="12" fill="#555" style="white-space: pre;">Vcc 5V</text>
  <line x1="140" y1="65" x2="140" y2="100" stroke="#333" stroke-width="1.5"/>
  <polyline points="140,100 146,108 134,120 146,132 134,144 146,156 140,164" fill="none" stroke="#333" stroke-width="1.5"/>
  <text x="155" y="128" font-size="12" fill="#555" style="white-space: pre;">R2</text>
  <text x="155" y="143" font-size="11" fill="#888" style="white-space: pre;">20k</text>
  <line x1="140" y1="164" x2="140" y2="210" stroke="#333" stroke-width="1.5"/>
  <circle cx="140" cy="210" r="4" fill="#333"/>
  <text x="112.785" y="201.136" text-anchor="end" font-size="13" font-weight="bold" fill="#0066cc" style="white-space: pre; font-size: 13px;">inp</text>
  <polyline points="140 261 146 269 134 281 146 293 134 305 146 317 140 325" fill="none" stroke="#333" stroke-width="1.5"/>
  <text x="120" y="244" text-anchor="end" font-size="12" fill="#555" style="white-space: pre;">R3</text>
  <text x="120" y="259" text-anchor="end" font-size="11" fill="#888" style="white-space: pre;">20k</text>
  <line x1="139.964" y1="211.569" x2="139.964" y2="261.489" stroke="#333" stroke-width="1.5" style=""/>
  <line x1="126" y1="370" x2="154" y2="370" stroke="#333" stroke-width="2"/>
  <line x1="130" y1="375" x2="150" y2="375" stroke="#333" stroke-width="1.5"/>
  <line x1="134" y1="380" x2="146" y2="380" stroke="#333" stroke-width="1"/>
  <line x1="140" y1="210" x2="210" y2="210" stroke="#333" stroke-width="1.5"/>
  <polyline points="210,210 216,206 228,214 240,206 252,214 264,206 270,210" fill="none" stroke="#333" stroke-width="1.5"/>
  <text x="240" y="198" text-anchor="middle" font-size="12" fill="#555" style="white-space: pre;">R4  20k</text>
  <line x1="270" y1="210" x2="494.21" y2="210" stroke="#333" stroke-width="1.5" style=""/>
  <polygon points="340,245 340,365 465,305" fill="#fff" stroke="#333" stroke-width="2"/>
  <line x1="300" y1="275" x2="340" y2="275" stroke="#333" stroke-width="1.5"/>
  <text x="348" y="280" font-size="15" font-weight="bold" fill="#2e7d32" style="white-space: pre;">+</text>
  <line x1="193.407" y1="210.565" x2="193.407" y2="275.565" stroke="#333" stroke-width="1.5"/>
  <line x1="193.477" y1="275" x2="300" y2="275" stroke="#333" stroke-width="1.5" style=""/>
  <circle cx="193.503" cy="210.089" r="3" fill="#333"/>
  <line x1="300" y1="335" x2="340" y2="335" stroke="#333" stroke-width="1.5"/>
  <text x="346" y="342" font-size="18" font-weight="bold" fill="#c62828" style="white-space: pre;">−</text>
  <line x1="400" y1="274.03" x2="400" y2="65" style="stroke: rgb(0, 0, 0); stroke-width: 2px;"/>
  <line x1="400" y1="337.303" x2="400" y2="385" stroke="#333" stroke-width="1.5" style=""/>
  <line x1="388" y1="385" x2="412" y2="385" stroke="#333" stroke-width="2"/>
  <line x1="392" y1="390" x2="408" y2="390" stroke="#333" stroke-width="1.5"/>
  <line x1="396" y1="395" x2="404" y2="395" stroke="#333" stroke-width="1"/>
  <text x="398" y="312" text-anchor="middle" font-size="13" fill="#555" style="white-space: pre;">TLV3201</text>
  <line x1="465" y1="305" x2="530" y2="305" stroke="#333" stroke-width="1.5"/>
  <circle cx="530" cy="305" r="4" fill="#333"/>
  <text x="548" y="300" font-size="14" font-weight="bold" fill="#c00" style="white-space: pre;">Vo</text>
  <line x1="530" y1="305" x2="580" y2="305" stroke="#333" stroke-width="1.5"/>
  <circle cx="586" cy="305" r="5" fill="none" stroke="#333" stroke-width="1.5"/>
  <line x1="493.494" y1="209.238" x2="493.494" y2="304.238" stroke="#333" stroke-width="1.5"/>
  <line x1="530" y1="305" x2="530" y2="340.588" stroke="#333" stroke-width="1.5" style=""/>
  <polyline points="529.946 340.325 523.946 348.325 535.946 360.325 523.946 372.325 535.946 384.325 523.946 396.325 529.946 404.325" fill="none" stroke="#333" stroke-width="1.5"/>
  <text x="548" y="400" font-size="12" fill="#555" style="white-space: pre;">R1</text>
  <text x="548" y="415" font-size="11" fill="#888" style="white-space: pre;">6.8k</text>
  <line x1="530" y1="404.508" x2="530" y2="437.66" stroke="#333" stroke-width="1.5" style=""/>
  <text x="520.986" y="459.153" font-size="13" font-weight="bold" fill="#0066cc" style="white-space: pre; font-size: 13px;">Vc</text>
  <line x1="300" y1="335" x2="300" y2="437.38" stroke="#333" stroke-width="1.5" style=""/>
  <line x1="299.846" y1="437.043" x2="529.846" y2="437.043" stroke="#333" stroke-width="1.5"/>
  <circle cx="420.015" cy="437.282" r="3" fill="#333"/>
  <line x1="420" y1="437.115" x2="420" y2="462" stroke="#333" stroke-width="1.5" style=""/>
  <line x1="407" y1="462" x2="433" y2="462" stroke="#333" stroke-width="2.5"/>
  <line x1="407" y1="469" x2="433" y2="469" stroke="#333" stroke-width="2.5"/>
  <line x1="420" y1="469" x2="420" y2="486.562" stroke="#333" stroke-width="1.5" style=""/>
  <text x="441" y="470" font-size="12" fill="#555" style="white-space: pre;">C1  100p</text>
  <line x1="407" y1="487" x2="433" y2="487" stroke="#333" stroke-width="2"/>
  <line x1="411" y1="492" x2="429" y2="492" stroke="#333" stroke-width="1.5"/>
  <line x1="415" y1="497" x2="425" y2="497" stroke="#333" stroke-width="1"/>
  <path d="M 442.358 431.246 C 462.358 416.246 492.358 416.246 502.358 429.246" fill="none" stroke="#1565c0" stroke-width="1.5" stroke-dasharray="4,2"/>
  <text x="432.606" y="422" text-anchor="end" font-size="11" fill="#1565c0" font-style="italic" style="white-space: pre; font-size: 11px;">RC timing</text>
  <text x="65.394" y="164.855" font-size="11" fill="#0066cc" font-style="italic" style="white-space: pre; font-size: 11px;">threshold set</text>
  <text x="61.313" y="178.536" font-size="11" fill="#0066cc" font-style="italic" style="white-space: pre; font-size: 11px;">by R2 / R3 / R4</text>
  <path d="M 118,200 L 134,208" fill="none" stroke="#0066cc" stroke-width="1" marker-end="url(#arrow)"/>
  <rect x="495.493" y="60.749" width="110" height="110" rx="6" fill="#f5f5f5" stroke="#ddd" stroke-width="1"/>
  <text x="550.493" y="80.749" text-anchor="middle" font-size="12" font-weight="bold" fill="#333" style="white-space: pre; font-size: 12px;">Key Nodes</text>
  <line x1="505.493" y1="87.749" x2="595.493" y2="87.749" stroke="#ddd"/>
  <text x="510.493" y="105.749" font-size="11" fill="#0066cc" font-weight="bold" style="white-space: pre; font-size: 11px;">inp</text>
  <text x="543.493" y="105.749" font-size="11" fill="#555" style="white-space: pre; font-size: 11px;">: V+ input</text>
  <text x="510.493" y="123.749" font-size="11" fill="#0066cc" font-weight="bold" style="white-space: pre; font-size: 11px;">Vc</text>
  <text x="543.493" y="123.749" font-size="11" fill="#555" style="white-space: pre; font-size: 11px;">: V− input</text>
  <text x="510.493" y="141.749" font-size="11" fill="#c00" font-weight="bold" style="white-space: pre; font-size: 11px;">Vo</text>
  <text x="543.493" y="141.749" font-size="11" fill="#555" style="white-space: pre; font-size: 11px;">: output</text>
  <text x="510.493" y="159.749" font-size="11" fill="#c00" font-weight="bold" style="white-space: pre; font-size: 11px;">Vcc</text>
  <text x="543.493" y="159.749" font-size="11" fill="#555" style="white-space: pre; font-size: 11px;">: 5V supply</text>
  <line x1="140.213" y1="324.343" x2="140.213" y2="369.566" stroke="#333" stroke-width="1.5" style="stroke-width: 1.5;"/>
  <circle cx="493.46" cy="305.113" r="4" fill="#333" style="stroke-width: 1;"/>
  <circle cx="140.338" cy="65.33" r="4" fill="#333" style="stroke-width: 1;"/>
</svg>